<svg xmlns="http://www.w3.org/2000/svg" viewBox="0 0 237.83 239.81"><defs><style>.cls-1{font-size:74.54px;font-family:Karla-Regular, Karla;}.cls-2{font-family:MyriadPro-Regular, Myriad Pro;}.cls-3{fill:#db3805;}.cls-4{fill:none;stroke:#000;stroke-miterlimit:10;stroke-width:4px;}</style></defs><title>Asset 7</title><g id="Layer_2" data-name="Layer 2"><g id="Layer_1-2" data-name="Layer 1"><text class="cls-1" transform="translate(111.74 136.27)">30<tspan class="cls-2" x="88.33" y="0">ยบ</tspan></text><polyline class="cls-3" points="31.82 165.38 31.82 56.32 58.63 56.32 58.63 165.93"/><circle class="cls-3" cx="45.03" cy="195.46" r="33.54"/><path class="cls-4" d="M23.68,23.68a21.68,21.68,0,1,1,43.37,0"/><path class="cls-4" d="M66.88,157.71A43,43,0,1,1,21,159.1"/><path class="cls-4" d="M21,159.1q1.32-.89,2.71-1.69"/><line class="cls-4" x1="23.68" y1="23.68" x2="23.68" y2="158.53"/><line class="cls-4" x1="67.05" y1="23.68" x2="67.05" y2="159.21"/><line x1="87.38" y1="192.41" x2="85.35" y2="192.41"/><line class="cls-4" x1="52.82" y1="125.33" x2="88.06" y2="125.33"/><line class="cls-4" x1="52.82" y1="90.77" x2="88.06" y2="90.77"/><line class="cls-4" x1="52.82" y1="56.21" x2="88.06" y2="56.21"/></g></g></svg>