<svg xmlns="http://www.w3.org/2000/svg" viewBox="0 0 257.66 240.72"><defs><style>.cls-1{fill:#cc6e11;}.cls-1,.cls-2,.cls-3,.cls-4{stroke:#000;stroke-miterlimit:10;stroke-width:4px;}.cls-2{fill:none;}.cls-3{fill:#ce844d;}.cls-4{fill:#603008;}</style></defs><title>Asset 20</title><g id="Layer_2" data-name="Layer 2"><g id="Layer_1-2" data-name="Layer 1"><polygon class="cls-1" points="83.52 214.34 111.8 163.2 151.8 146.94 191.56 163.7 197.39 147.22 178.72 124.58 206.71 131.85 220.79 121.99 216.15 105.88 204.62 97.04 223.67 95.26 230.49 89.6 226 73.98 211.47 67.59 224.43 57.52 228.6 46.27 216.79 36.46 197.75 41.94 211.61 29.49 204.17 3.62 178.35 2.06 168.75 16.46 155.47 3.37 144.03 4.01 138.26 15.19 146.6 34.99 130.11 25.46 114.97 26.12 112.98 39.38 123.61 54.29 102.1 45.68 83.91 54.08 87.5 68.38 106.49 79.3 86.34 84.57 73.58 89.83 75.92 107.12 106.85 126.41 111.8 163.2 83.52 214.34"/><line class="cls-2" x1="83.52" y1="214.35" x2="177.87" y2="43.75"/><line class="cls-2" x1="157.4" y1="80.75" x2="147.05" y2="56.29"/><line class="cls-2" x1="145.79" y1="103.9" x2="135.45" y2="79.44"/><line class="cls-2" x1="133.27" y1="123.87" x2="122.92" y2="99.4"/><line class="cls-2" x1="159.37" y1="119.38" x2="133.14" y2="123.58"/><line class="cls-2" x1="172.84" y1="97.27" x2="146.61" y2="101.46"/><line class="cls-2" x1="183.12" y1="76.06" x2="156.9" y2="80.26"/><path class="cls-3" d="M5.49,129.36,2.1,154.81a11.12,11.12,0,0,0,1.18,6.65l5,9.48a19.25,19.25,0,0,0,4.92,6l1,.83a14,14,0,0,0,14.47,1.9l3.41-1.52a10.45,10.45,0,0,0,3.8-2.88l9.6-11.59a8.39,8.39,0,0,0,1.88-4.48L50,134Z"/><path class="cls-2" d="M32,108.3l.91-6.46s2.49-4.91,7.19-4.55"/><line class="cls-2" x1="3.65" y1="143.17" x2="15.77" y2="144.64"/><line class="cls-2" x1="21.71" y1="159.74" x2="33.83" y2="161.21"/><line class="cls-2" x1="47.8" y1="155.11" x2="29.72" y2="153.57"/><path class="cls-4" d="M3.19,129.36s2.5-10.5,10.17-16.89c3.61-3,7.93-5.36,16.64-5,8.39.33,15.33,4.27,18.33,9s4,17.51,4,17.51"/><line class="cls-4" x1="3.19" y1="129.36" x2="52.34" y2="133.98"/><path class="cls-3" d="M208.81,187.21l-3.39,25.46a11.12,11.12,0,0,0,1.18,6.65l5,9.48a19.25,19.25,0,0,0,4.92,6l1,.83a14,14,0,0,0,14.47,1.9l3.41-1.52a10.45,10.45,0,0,0,3.8-2.88l9.6-11.59a8.39,8.39,0,0,0,1.88-4.48l2.63-25.22Z"/><path class="cls-2" d="M235.27,166.15l.91-6.46s2.49-4.91,7.19-4.55"/><line class="cls-2" x1="206.97" y1="201.02" x2="219.09" y2="202.49"/><line class="cls-2" x1="225.03" y1="217.59" x2="237.15" y2="219.06"/><line class="cls-2" x1="251.12" y1="212.96" x2="233.04" y2="211.42"/><path class="cls-4" d="M206.51,187.21s2.5-10.5,10.17-16.89c3.61-3,7.93-5.36,16.64-5,8.39.33,15.33,4.27,18.33,9s4,17.51,4,17.51"/><line class="cls-4" x1="206.51" y1="187.21" x2="255.67" y2="191.83"/></g></g></svg>