<svg xmlns="http://www.w3.org/2000/svg" viewBox="0 0 268.08 267.76"><defs><style>.cls-1{fill:#fff;}.cls-1,.cls-3{stroke:#000;stroke-miterlimit:10;stroke-width:4px;}.cls-2{font-size:48px;font-family:Karla-Regular, Karla;}.cls-3{fill:none;}</style></defs><title>Asset 35</title><g id="Layer_2" data-name="Layer 2"><g id="Layer_1-2" data-name="Layer 1"><path class="cls-1" d="M93.68,188.54S118.15,196,131,177.66c10.11-14.39-3.71-31-3.71-31s11.69-22.41-11.58-38.46c-19.52-13.46-35.86.44-35.86.44s-20.89-14-39.31,5.24c-15.37,16.06-3.06,34.31-3.06,34.31S26.73,162.52,34.46,177c10.49,19.67,32.12,15.73,32.12,15.73s6,6.83,17,4.59C90.27,196,93.68,188.54,93.68,188.54Z"/><text class="cls-2" transform="translate(1.6 39.1)">background</text><polyline class="cls-3" points="83.54 267.76 83.54 150.26 71.34 133.77"/><line class="cls-3" x1="83.54" y1="166.21" x2="109.1" y2="142.81"/><line class="cls-3" x1="83.54" y1="181.63" x2="60.18" y2="163.55"/><polyline class="cls-3" points="139.1 239.46 202.76 239.46 212.17 252.72"/><line class="cls-3" x1="139.09" y1="239.46" x2="129.68" y2="252.72"/><polygon class="cls-3" points="138.37 215.8 139.1 239.46 202.76 239.46 202.76 215.8 138.37 215.8"/><polyline class="cls-3" points="129.68 265.69 129.68 252.72 212.17 252.72 212.17 265.69"/></g></g></svg>