<svg id="Layer_1" data-name="Layer 1" xmlns="http://www.w3.org/2000/svg" viewBox="0 0 433.18 271.25"><defs><style>.cls-1{fill:#fff;stroke:#000;stroke-miterlimit:10;stroke-width:18px;}</style></defs><title>cloud</title><path class="cls-1" d="M321,140.86c-20.47-15.07-59.7-19.64-93.07-17.17-42.43,3.15-76.08,27.52-76.08,27.52S123.87,171.65,113,201c-7.5,20.16-6.73,36.84-6.73,36.84-6.46,3.84-44.38,18.35-56,42.88-9.42,20-9.11,22.12-4.61,54.89C50.1,367.83,88.25,378,122,376.07c19.91-1.17,272.82.23,272.82.23s35.75-10.29,50.81-43c13.31-28.88,12.09-43,12.09-43s2.75-22.26-26.89-51.58c-16.6-16.42-58.27-18-58.27-18s-7.35-53.65-51.63-79.85" transform="translate(-33.63 -114.06)"/></svg>