<svg xmlns="http://www.w3.org/2000/svg" viewBox="0 0 250.24 234.24"><defs><style>.cls-1,.cls-3{fill:none;stroke:#000;stroke-miterlimit:10;}.cls-1{stroke-width:18px;}.cls-2{font-size:74.54px;font-family:Karla-Regular, Karla;}.cls-3{stroke-width:4px;}</style></defs><title>Asset 6</title><g id="Layer_2" data-name="Layer 2"><g id="Layer_1-2" data-name="Layer 1"><polygon points="154.83 0 154.52 67.69 200.41 34.97 154.83 0"/><line class="cls-1" x1="170.83" y1="34.81" x2="83.25" y2="34.97"/><text class="cls-2" transform="translate(0.06 215.91)">20kmh</text><path class="cls-3" d="M77.93,99.17c-2.5.46-5-2.54-5.57-5.12a7.91,7.91,0,0,1,7.74-9.1c5.41,0,9.54,3.27,10,6.83.57,4.32.34,7.28-1.59,11.15s-5.57,6.6-12.63,6.48l-40,.1"/><path class="cls-3" d="M77.93,134.36c-2.5-.48-5,2.67-5.57,5.38-.84,3.78,2.16,9.57,7.74,9.57,5.41,0,9.54-3.44,10-7.18.57-4.55.34-7.66-1.59-11.73s-5.57-6.94-12.63-6.82l-40-.1"/><path class="cls-3" d="M105.72,100.37c-3.9.71-7.75-4-8.69-8-1.31-5.6,3.37-14.19,12.06-14.19,8.43,0,14.88,5.09,15.61,10.64.89,6.74.53,11.35-2.48,17.38s-8.69,10.29-19.69,10.11l-66.69.16"/></g></g></svg>