<svg xmlns="http://www.w3.org/2000/svg" viewBox="0 0 222.08 229.7"><defs><style>.cls-1{font-size:74.54px;font-family:Karla-Regular, Karla;}.cls-2,.cls-3{fill:none;stroke:#000;stroke-miterlimit:10;}.cls-2{stroke-width:4px;}.cls-3{stroke-width:18px;}</style></defs><title>Asset 3</title><g id="Layer_2" data-name="Layer 2"><g id="Layer_1-2" data-name="Layer 1"><text class="cls-1" transform="translate(0.06 211.36)">5kmh</text><path class="cls-2" d="M135.38,67.76c-2.5.46-5-2.54-5.57-5.12a7.91,7.91,0,0,1,7.74-9.1c5.41,0,9.54,3.27,10,6.83.57,4.32.34,7.28-1.59,11.15s-5.57,6.6-12.63,6.48l-40,.1"/><path class="cls-2" d="M135.38,103c-2.5-.48-5,2.67-5.57,5.38-.84,3.78,2.16,9.57,7.74,9.57,5.41,0,9.54-3.44,10-7.18.57-4.55.34-7.66-1.59-11.73s-5.57-6.94-12.63-6.82l-40-.1"/><path class="cls-2" d="M163.17,69c-3.9.71-7.75-4-8.69-8-1.31-5.6,3.37-14.19,12.06-14.19,8.43,0,14.88,5.09,15.61,10.64.89,6.74.53,11.35-2.48,17.38S171,85.1,160,84.92l-66.69.16"/><polygon points="17.8 45.58 85.49 45.89 52.77 0 17.8 45.58"/><line class="cls-3" x1="52.61" y1="29.58" x2="52.77" y2="117.16"/></g></g></svg>