<?xml version="1.0" encoding="utf-8"?>
<!-- Generator: Adobe Illustrator 21.0.0, SVG Export Plug-In . SVG Version: 6.00 Build 0)  -->
<svg version="1.1" xmlns="http://www.w3.org/2000/svg" xmlns:xlink="http://www.w3.org/1999/xlink" x="0px" y="0px"
	 viewBox="0 0 500 500" style="enable-background:new 0 0 500 500;" xml:space="preserve">
<style type="text/css">
	.st0{fill:#0000FF;stroke:#0000FF;stroke-width:8;stroke-miterlimit:10;}
	.st1{fill:#FFFFFF;stroke:#000000;stroke-width:18;stroke-miterlimit:10;}
</style>
<g id="Layer_1">
	<g>
		<g>
			<path class="st0" d="M118.4,387.5c-3.3,4.5-5.1,10.1-4.7,16.1c0.8,13.8,12.8,24.3,26.7,23.4c13.9-0.9,24.5-12.7,23.6-26.5
				c-0.3-4.8-1.9-9.2-4.5-12.8"/>
			<polyline class="st0" points="117.5,389 139.4,347.9 160.5,389.4 			"/>
		</g>
		<g>
			<path class="st0" d="M229.4,389.5c-3.3,4.5-5.1,10.1-4.7,16.1c0.8,13.8,12.8,24.3,26.7,23.4c13.9-0.9,24.5-12.7,23.6-26.5
				c-0.3-4.8-1.9-9.2-4.5-12.8"/>
			<polyline class="st0" points="228.5,391 250.4,349.9 271.5,391.4 			"/>
		</g>
		<g>
			<path class="st0" d="M334.4,391.5c-3.3,4.5-5.1,10.1-4.7,16.1c0.8,13.8,12.8,24.3,26.7,23.4c13.9-0.9,24.5-12.7,23.6-26.5
				c-0.3-4.8-1.9-9.2-4.5-12.8"/>
			<polyline class="st0" points="333.5,393 355.4,351.9 376.5,393.4 			"/>
		</g>
		<path class="st1" d="M321,85.9c-20.5-15.1-59.7-19.6-93.1-17.2c-42.4,3.1-76.1,27.5-76.1,27.5S123.9,116.7,113,146
			c-7.5,20.2-6.7,36.8-6.7,36.8c-6.5,3.8-44.4,18.3-56,42.9c-9.4,20-9.1,22.1-4.6,54.9c4.4,32.3,42.6,42.5,76.4,40.5
			c19.9-1.2,272.8,0.2,272.8,0.2s35.7-10.3,50.8-43c13.3-28.9,12.1-43,12.1-43s2.8-22.3-26.9-51.6c-16.6-16.4-58.3-18-58.3-18
			S365.2,112.1,321,85.9"/>
	</g>
</g>
<g id="Layer_2">
</g>
</svg>
