<?xml version="1.0" encoding="utf-8"?>
<!-- Generator: Adobe Illustrator 21.0.0, SVG Export Plug-In . SVG Version: 6.00 Build 0)  -->
<svg version="1.1" xmlns="http://www.w3.org/2000/svg" xmlns:xlink="http://www.w3.org/1999/xlink" x="0px" y="0px"
	 viewBox="0 0 500 500" style="enable-background:new 0 0 500 500;" xml:space="preserve">
<style type="text/css">
	.st0{fill:#FFFFFF;stroke:#000000;stroke-width:18;stroke-miterlimit:10;}
	.st1{fill:#FFFFFF;stroke:#000000;stroke-width:8;stroke-miterlimit:10;}
</style>
<g id="Layer_1">
	<g>
		<path class="st0" d="M321,94.9c-20.5-15.1-59.7-19.6-93.1-17.2c-42.4,3.1-76.1,27.5-76.1,27.5S123.9,125.7,113,155
			c-7.5,20.2-6.7,36.8-6.7,36.8c-6.5,3.8-44.4,18.3-56,42.9c-9.4,20-9.1,22.1-4.6,54.9c4.4,32.3,42.6,42.5,76.4,40.5
			c19.9-1.2,272.8,0.2,272.8,0.2s35.7-10.3,50.8-43c13.3-28.9,12.1-43,12.1-43s2.8-22.3-26.9-51.6c-16.6-16.4-58.3-18-58.3-18
			S365.2,121.1,321,94.9"/>
		<g>
			<line class="st1" x1="100" y1="376.9" x2="152.1" y2="407"/>
			<line class="st1" x1="102.5" y1="409" x2="151.1" y2="374"/>
			<line class="st1" x1="126.2" y1="361.3" x2="126.2" y2="420.8"/>
		</g>
		<g>
			<line class="st1" x1="220" y1="377.8" x2="272.1" y2="407.9"/>
			<line class="st1" x1="222.5" y1="409.9" x2="271" y2="374.9"/>
			<line class="st1" x1="246.2" y1="362.2" x2="246.2" y2="421.7"/>
		</g>
		<g>
			<line class="st1" x1="335.8" y1="378.7" x2="387.9" y2="408.8"/>
			<line class="st1" x1="338.3" y1="410.7" x2="386.9" y2="375.8"/>
			<line class="st1" x1="362" y1="363.1" x2="362" y2="422.6"/>
		</g>
	</g>
</g>
<g id="Layer_2">
</g>
</svg>
