<svg xmlns="http://www.w3.org/2000/svg" viewBox="0 0 233.55 292.15"><defs><style>.cls-1,.cls-4{fill:#fff;}.cls-1,.cls-2{stroke:#8cc63f;}.cls-1,.cls-2,.cls-3,.cls-4,.cls-5{stroke-miterlimit:10;}.cls-1,.cls-2,.cls-3,.cls-4{stroke-width:4px;}.cls-2{fill:none;}.cls-3{fill:#8cc63f;}.cls-3,.cls-4,.cls-5{stroke:#000;}.cls-5{fill:#ff0;stroke-width:3px;}</style></defs><title>Asset 32</title><g id="Layer_2" data-name="Layer 2"><g id="Layer_1-2" data-name="Layer 1"><line class="cls-1" x1="54.6" y1="85.6" x2="47.85" y2="231.83"/><line class="cls-1" x1="128.29" y1="169.06" x2="101.25" y2="271.75"/><line class="cls-2" x1="173.57" y1="70.99" x2="160.6" y2="150.89"/><rect class="cls-3" x="106.62" y="177.38" width="8.96" height="113.12" transform="translate(65.22 -20.95) rotate(15.2)"/><rect class="cls-3" x="44.44" y="87.13" width="8.96" height="148.34" transform="translate(7.88 -2.18) rotate(2.78)"/><rect class="cls-3" x="160.35" y="73.84" width="8.96" height="113.12" transform="translate(23.02 -24.72) rotate(9.22)"/><ellipse class="cls-4" cx="119.67" cy="122.01" rx="9.2" ry="21.57" transform="translate(-36.28 52.11) rotate(-21.41)"/><ellipse class="cls-4" cx="158.87" cy="174.47" rx="9.2" ry="21.57" transform="translate(-74.47 209.59) rotate(-56.24)"/><ellipse class="cls-4" cx="99.57" cy="137.01" rx="9.2" ry="21.57" transform="translate(-69.67 143.64) rotate(-56.24)"/><ellipse class="cls-4" cx="94.22" cy="164.71" rx="21.57" ry="9.2" transform="translate(-42.65 33.29) rotate(-16.39)"/><ellipse class="cls-4" cx="163.08" cy="146.62" rx="21.57" ry="9.2" transform="translate(-34.75 51.98) rotate(-16.39)"/><ellipse class="cls-4" cx="138.28" cy="190.56" rx="9.2" ry="21.57" transform="translate(-60.02 63.64) rotate(-21.41)"/><ellipse class="cls-4" cx="146.37" cy="125.46" rx="21.57" ry="9.2" transform="translate(-30.61 201.89) rotate(-63.96)"/><ellipse class="cls-4" cx="111.1" cy="186.46" rx="21.57" ry="9.2" transform="translate(-105.2 204.42) rotate(-63.96)"/><circle class="cls-5" cx="128.17" cy="155.96" r="14.83" transform="translate(-45.18 259.41) rotate(-81.41)"/><ellipse class="cls-4" cx="167.29" cy="22.37" rx="9.2" ry="21.57" transform="translate(3.38 62.61) rotate(-21.41)"/><ellipse class="cls-4" cx="206.49" cy="74.83" rx="9.2" ry="21.57" transform="translate(29.52 204.91) rotate(-56.24)"/><ellipse class="cls-4" cx="147.18" cy="37.37" rx="9.2" ry="21.57" transform="translate(34.32 138.96) rotate(-56.24)"/><ellipse class="cls-4" cx="141.83" cy="65.07" rx="21.57" ry="9.2" transform="translate(-12.6 42.67) rotate(-16.39)"/><ellipse class="cls-4" cx="210.69" cy="46.98" rx="21.57" ry="9.2" transform="translate(-4.7 61.37) rotate(-16.39)"/><ellipse class="cls-4" cx="185.9" cy="90.92" rx="9.2" ry="21.57" transform="translate(-20.36 74.14) rotate(-21.41)"/><ellipse class="cls-4" cx="193.98" cy="25.82" rx="21.57" ry="9.2" transform="translate(85.62 188.77) rotate(-63.96)"/><ellipse class="cls-4" cx="158.72" cy="86.82" rx="21.57" ry="9.2" transform="translate(11.03 191.3) rotate(-63.96)"/><circle class="cls-5" cx="175.78" cy="56.32" r="14.83" transform="translate(93.84 221.73) rotate(-81.41)"/><ellipse class="cls-4" cx="48.31" cy="36.98" rx="9.2" ry="21.57" transform="translate(-10.17 20.19) rotate(-21.41)"/><ellipse class="cls-4" cx="87.52" cy="89.45" rx="9.2" ry="21.57" transform="translate(-35.48 112.49) rotate(-56.24)"/><ellipse class="cls-4" cx="28.21" cy="51.98" rx="9.2" ry="21.57" transform="translate(-30.68 46.54) rotate(-56.24)"/><ellipse class="cls-4" cx="22.86" cy="79.68" rx="21.57" ry="9.2" transform="translate(-21.56 9.69) rotate(-16.39)"/><ellipse class="cls-4" cx="91.72" cy="61.6" rx="21.57" ry="9.2" transform="translate(-13.66 28.39) rotate(-16.39)"/><ellipse class="cls-4" cx="66.93" cy="105.54" rx="9.2" ry="21.57" transform="translate(-33.91 31.72) rotate(-21.41)"/><ellipse class="cls-4" cx="75.01" cy="40.43" rx="21.57" ry="9.2" transform="translate(5.75 90.08) rotate(-63.96)"/><ellipse class="cls-4" cx="39.74" cy="101.43" rx="21.57" ry="9.2" transform="translate(-68.84 92.61) rotate(-63.96)"/><circle class="cls-5" cx="56.81" cy="70.94" r="14.83" transform="translate(-21.81 116.52) rotate(-81.41)"/></g></g></svg>