<svg xmlns="http://www.w3.org/2000/svg" viewBox="0 0 225.67 263"><defs><style>.cls-1,.cls-3{fill:#fff;}.cls-1,.cls-2{stroke:#8cc63f;}.cls-1,.cls-2,.cls-3,.cls-4{stroke-miterlimit:10;}.cls-1,.cls-2,.cls-3{stroke-width:4px;}.cls-2{fill:none;}.cls-3,.cls-4{stroke:#000;}.cls-4{fill:#ff0;stroke-width:3px;}</style></defs><title>Asset 19</title><g id="Layer_2" data-name="Layer 2"><g id="Layer_1-2" data-name="Layer 1"><line class="cls-1" x1="52.79" y1="82.73" x2="46.28" y2="223.93"/><line class="cls-1" x1="123.95" y1="163.32" x2="97.84" y2="262.49"/><line class="cls-2" x1="167.68" y1="68.62" x2="155.16" y2="145.78"/><ellipse class="cls-3" cx="46.72" cy="35.78" rx="8.89" ry="20.83" transform="translate(-9.84 19.53) rotate(-21.41)"/><ellipse class="cls-3" cx="84.58" cy="86.44" rx="8.89" ry="20.83" transform="matrix(0.56, -0.83, 0.83, 0.56, -34.29, 108.71)"/><ellipse class="cls-3" cx="27.31" cy="50.26" rx="8.89" ry="20.83" transform="translate(-29.65 45.03) rotate(-56.24)"/><ellipse class="cls-3" cx="22.14" cy="77.01" rx="20.83" ry="8.89" transform="translate(-20.83 9.38) rotate(-16.39)"/><ellipse class="cls-3" cx="88.64" cy="59.55" rx="20.83" ry="8.89" transform="translate(-13.2 27.44) rotate(-16.39)"/><ellipse class="cls-3" cx="64.7" cy="101.98" rx="8.89" ry="20.83" transform="translate(-32.76 30.66) rotate(-21.41)"/><ellipse class="cls-3" cx="72.5" cy="39.11" rx="20.83" ry="8.89" transform="translate(5.53 87.08) rotate(-63.96)"/><ellipse class="cls-3" cx="38.45" cy="98.02" rx="20.83" ry="8.89" transform="translate(-66.5 89.53) rotate(-63.96)"/><circle class="cls-4" cx="54.93" cy="68.57" r="14.32" transform="translate(-21.07 112.64) rotate(-81.41)"/><ellipse class="cls-3" cx="161.61" cy="21.67" rx="8.89" ry="20.83" transform="translate(3.24 60.49) rotate(-21.41)"/><ellipse class="cls-3" cx="199.47" cy="72.33" rx="8.89" ry="20.83" transform="translate(28.48 197.96) rotate(-56.24)"/><ellipse class="cls-3" cx="142.19" cy="36.15" rx="8.89" ry="20.83" transform="translate(33.11 134.27) rotate(-56.24)"/><ellipse class="cls-3" cx="137.03" cy="62.9" rx="20.83" ry="8.89" transform="translate(-12.18 41.23) rotate(-16.39)"/><ellipse class="cls-3" cx="203.53" cy="45.44" rx="20.83" ry="8.89" transform="translate(-4.55 59.29) rotate(-16.39)"/><ellipse class="cls-3" cx="179.58" cy="87.87" rx="8.89" ry="20.83" transform="translate(-19.68 71.62) rotate(-21.41)"/><ellipse class="cls-3" cx="187.39" cy="25" rx="20.83" ry="8.89" transform="translate(82.66 182.39) rotate(-63.96)"/><ellipse class="cls-3" cx="153.33" cy="83.9" rx="20.83" ry="8.89" transform="translate(10.63 184.83) rotate(-63.96)"/><circle class="cls-4" cx="169.82" cy="54.46" r="14.32" transform="translate(90.61 214.24) rotate(-81.41)"/><ellipse class="cls-3" cx="115.63" cy="117.88" rx="8.89" ry="20.83" transform="translate(-35.06 50.35) rotate(-21.41)"/><ellipse class="cls-3" cx="153.49" cy="168.55" rx="8.89" ry="20.83" transform="translate(-71.94 202.47) rotate(-56.24)"/><ellipse class="cls-3" cx="96.22" cy="132.37" rx="8.89" ry="20.83" transform="translate(-67.3 138.79) rotate(-56.24)"/><ellipse class="cls-3" cx="91.05" cy="159.12" rx="20.83" ry="8.89" transform="translate(-41.2 32.16) rotate(-16.39)"/><ellipse class="cls-3" cx="157.55" cy="141.66" rx="20.83" ry="8.89" transform="translate(-33.57 50.22) rotate(-16.39)"/><ellipse class="cls-3" cx="133.6" cy="184.08" rx="8.89" ry="20.83" transform="translate(-57.98 61.48) rotate(-21.41)"/><ellipse class="cls-3" cx="141.41" cy="121.22" rx="20.83" ry="8.89" transform="translate(-29.58 195.05) rotate(-63.96)"/><ellipse class="cls-3" cx="107.35" cy="180.12" rx="20.83" ry="8.89" transform="translate(-101.61 197.5) rotate(-63.96)"/><circle class="cls-4" cx="123.84" cy="150.68" r="14.32" transform="translate(-43.64 250.62) rotate(-81.41)"/></g></g></svg>