<svg xmlns="http://www.w3.org/2000/svg" viewBox="0 0 238.81 290.39"><defs><style>.cls-1{fill:#8cc63f;}.cls-1,.cls-2,.cls-3{stroke:#000;stroke-miterlimit:10;stroke-width:4px;}.cls-2{fill:#603008;}.cls-3{fill:#ffff3f;}</style></defs><title>Asset 33</title><g id="Layer_2" data-name="Layer 2"><g id="Layer_1-2" data-name="Layer 1"><path class="cls-1" d="M144.05,85.16s17.37-7.72,32.17-6.43,56.61,3.22,56.61,3.22-33.33-27.06-53.91-27.7S133.33,64,133.33,64s7.51-21.92,30-39.94S198.73,2.82,198.73,2.82s-37.67-3.52-54.49,4c-12.36,5.52-22.17,15.58-26.56,19.8-11,10.53-8.36,30.24-8.36,30.24S88.83,48,68.94,49.78C47.4,51.71,8.31,94.17,8.31,94.17l40-18.65c5.4-1.14,31.61-6.07,42.31-3.87a28.93,28.93,0,0,1,16.08,9.65L62.82,87.79s-17.14,8.39-23.79,19c-7.93,12.69-6.91,39.46-6.91,39.46s13-27.68,31.21-33.3c17.87-5.5,46-14.62,46-14.62S93.49,118.27,95.6,129C97.5,138.76,108,171,108,171s2.43-29.38,3.93-37.89c1.35-7.63,11.32-31.84,11.32-31.84Z"/><path class="cls-2" d="M144.43,85.73l18,19.94L156,107.6,178.52,143l-7.08,1.93L192,187.37l-9,3.22L194.6,233h-8.36v38s-18.66,16.73-34.74,17.37-27.86-10.94-27.86-10.94L139.92,244H132.2l16.08-40.53h-8.36l5.15-47.6h-8.36v-34.1L129,125l-5.34-23.16Z"/><line class="cls-3" x1="136.71" y1="121.75" x2="156" y2="107.6"/><line class="cls-3" x1="145.07" y1="155.85" x2="171.44" y2="144.91"/><line class="cls-3" x1="148.29" y1="203.45" x2="183.02" y2="190.59"/><line class="cls-3" x1="139.92" y1="243.98" x2="186.24" y2="233.04"/></g></g></svg>