<?xml version="1.0" encoding="utf-8"?>
<!-- Generator: Adobe Illustrator 21.0.0, SVG Export Plug-In . SVG Version: 6.00 Build 0)  -->
<svg version="1.1" xmlns="http://www.w3.org/2000/svg" xmlns:xlink="http://www.w3.org/1999/xlink" x="0px" y="0px"
	 viewBox="30 0 539 500" style="enable-background:new 0 0 579 500;" xml:space="preserve">
<style type="text/css">
	.st0{fill:#FFFF00;stroke:#FFFF00;stroke-width:18;stroke-miterlimit:10;}
	.st1{fill:none;}
	.st2{fill-rule:evenodd;clip-rule:evenodd;fill:#FFFF00;}
	.st3{fill:#FFFFFF;stroke:#000000;stroke-width:18;stroke-miterlimit:10;}
</style>
<g id="Layer_1">
	<g>
		<g>
			<circle class="st0" cx="401.5" cy="242.5" r="89.9"/>
			<g>
				<g>
					<g>
						<g>
							<g>
								<path class="st1" d="M518.4,258.5c-0.8,5.8-2,11.6-3.7,17.3c-1.7,5.6-3.7,11.2-6.2,16.5l37.1,17.3
									c3.4-7.2,6.1-14.7,8.4-22.3c2.3-7.6,3.9-15.4,5-23.3L518.4,258.5z"/>
								<path class="st2" d="M527.1,300.9c-5.1-2.4-8.8-6.6-10.9-11.1c-1.1-2.3-1.7-4.6-2-7c-0.1-1.2-0.2-2.4-0.1-3.6
									c0.1-0.6,0.2-1.2,0.3-1.8c0.1-0.6,0.2-1.2,0.4-1.8c0.3-1.2,0.8-2.3,1.4-3.3c0.6-1,1.2-2,1.9-3c0.7-0.9,1.6-1.8,2.5-2.6
									c0.9-0.8,1.9-1.5,2.9-2.2c4.3-2.6,9.6-4.2,15.2-3.4c5.6,0.7,10.4,3.8,13.3,8.6c0.7,1.2,1.3,2.5,1.8,3.8
									c0.5,1.4,0.8,2.8,1,4.3c0.2,1.5,0.3,3,0.1,4.6c-0.2,1.6-0.5,3.1-0.9,4.7c-0.2,0.8-0.5,1.6-0.8,2.3c-0.3,0.7-0.7,1.5-1,2.1
									c-0.8,1.4-1.6,2.7-2.6,3.8c-1.9,2.3-4.3,4.1-6.8,5.3c-2.5,1.2-5.2,1.8-7.9,1.8C532.3,302.7,529.6,302.1,527.1,300.9z"/>
							</g>
						</g>
						<g>
							<g>
								<path class="st1" d="M491.2,319.1c-1,1.1-1.9,2.3-2.9,3.3l-3.1,3.2c-2.1,2-4.2,4.1-6.5,6c-2.2,2-4.6,3.7-6.9,5.6l-3.6,2.6
									c-1.2,0.9-2.5,1.6-3.7,2.4l21.9,34.6c1.7-1.1,3.4-2.1,5-3.3l4.9-3.5c3.1-2.4,6.3-4.8,9.3-7.5c3-2.5,5.9-5.3,8.7-8.1l4.1-4.3
									c1.4-1.4,2.6-3,3.9-4.5L491.2,319.1z"/>
								<path class="st2" d="M475.5,359.5c-1.5-2.4-2.5-5-3-7.6c-0.5-2.6-0.5-5.2-0.2-7.7c0.2-1.2,0.4-2.5,0.8-3.6
									c0.4-1.1,0.8-2.3,1.3-3.4c0.5-1.1,1.2-2.1,1.9-3c0.7-0.9,1.5-1.9,2.5-2.6c3.7-3.2,8.4-4.6,13.4-4.6c2.5,0.1,5.1,0.5,7.6,1.3
									c2.5,0.9,4.9,2.2,7.1,4c2.1,1.8,3.8,4,4.9,6.5c1.1,2.4,1.7,5.2,1.6,7.9c-0.1,5.5-2.7,11.5-7.7,15.8c-1.3,1.1-2.5,2-3.9,2.8
									c-1.4,0.7-2.8,1.4-4.2,1.8c-1.4,0.5-2.9,0.8-4.3,0.9c-1.4,0.1-2.9,0.1-4.2-0.1c-2.7-0.3-5.4-1.3-7.6-2.7
									C479,363.9,477.1,361.9,475.5,359.5z"/>
							</g>
						</g>
						<g>
							<g>
								<path class="st1" d="M435.6,355.5l-4.2,1.2c-1.4,0.4-2.9,0.7-4.3,1c-1.4,0.4-2.9,0.6-4.3,0.9c-1.5,0.2-2.9,0.6-4.4,0.7
									l-4.4,0.6c-1.5,0.1-2.9,0.2-4.4,0.3c-0.7,0-1.5,0.1-2.2,0.2l-2.2,0.1c-1.5,0-3,0.1-4.4,0.1l-0.3,40.9c2,0.1,4-0.1,5.9-0.1
									l3-0.1c1,0,2-0.1,3-0.2c2-0.2,4-0.3,5.9-0.5l5.9-0.7c2-0.2,3.9-0.6,5.9-1c2-0.3,3.9-0.7,5.8-1.2c1.9-0.5,3.9-0.9,5.8-1.4
									l5.7-1.6L435.6,355.5z"/>
								<path class="st2" d="M400.5,381c0-2.8,0.6-5.5,1.6-8c1-2.5,2.3-4.7,4-6.6c1.6-1.8,3.5-3.5,5.5-4.7c2.1-1.1,4.3-2.1,6.7-2.4
									c1.2-0.1,2.4-0.2,3.6-0.2c1.2,0.1,2.4,0.3,3.5,0.6c2.3,0.5,4.5,1.6,6.6,3c4.1,2.7,7.8,7,9.4,12.4c1.6,5.4,0.8,11-2.3,15.7
									c-1.6,2.3-3.7,4.3-6.2,5.9c-1.3,0.8-2.7,1.4-4.2,2c-1.5,0.5-3,1-4.7,1.2c-3.3,0.4-6.4,0.3-9.3-0.6c-2.9-0.8-5.5-2.1-7.6-3.9
									c-2.1-1.8-3.8-4-4.9-6.4C401.1,386.5,400.5,383.8,400.5,381z"/>
							</g>
						</g>
						<g>
							<g>
								<path class="st1" d="M369,356c-2.9-0.7-5.6-1.8-8.4-2.7l-4.1-1.6c-1.4-0.5-2.7-1.2-4-1.8c-5.3-2.5-10.6-5.2-15.5-8.5
									l-22.4,34.3c6.6,4.4,13.6,8.2,20.8,11.5c1.8,0.8,3.6,1.7,5.5,2.4l5.5,2.2c3.8,1.3,7.5,2.7,11.3,3.7L369,356z"/>
								<path class="st2" d="M325.8,358.5c1.5-2.4,3.5-4.3,5.7-5.8c2.2-1.5,4.5-2.6,6.9-3.4c4.8-1.5,9.7-1.4,14.1,0.6
									c1.1,0.5,2.1,1.1,3.1,1.8c1,0.7,1.9,1.5,2.7,2.3c1.6,1.8,3,3.8,4,6.1c0.5,1.1,0.9,2.4,1.2,3.6c0.3,1.3,0.6,2.5,0.7,3.8
									c0.3,2.6,0.1,5.4-0.7,8.1c-0.8,2.7-2.1,5.1-3.8,7.2c-0.9,1-1.9,2-3,2.7c-1.1,0.8-2.3,1.4-3.6,2c-2.6,1.1-5.5,1.7-8.4,1.6
									c-1.5,0-3-0.2-4.6-0.5c-1.5-0.4-3-0.9-4.5-1.6c-6-2.7-10.2-7.7-11.9-13c-0.9-2.6-1.1-5.4-0.7-8.1
									C323.3,363.4,324.3,360.8,325.8,358.5z"/>
							</g>
						</g>
						<g>
							<g>
								<path class="st1" d="M312.9,320.4c-3.9-4.4-7.5-9.2-10.7-14.1c-1.7-2.4-3.1-5-4.5-7.6c-1.3-2.6-2.7-5.2-3.9-7.9l-37.3,16.8
									c1.6,3.7,3.4,7.2,5.2,10.7c2,3.4,3.9,6.9,6.1,10.2c4.3,6.7,9.1,13.1,14.3,19L312.9,320.4z"/>
								<path class="st2" d="M275.1,299.1c2.6-1.2,5.3-1.7,7.9-1.9c1.3-0.1,2.6,0,3.9,0.1c1.3,0.1,2.6,0.4,3.8,0.7
									c2.4,0.7,4.6,1.7,6.6,3.1c1,0.7,1.9,1.4,2.7,2.3c0.8,0.9,1.6,1.8,2.3,2.8c2.6,4.1,3.4,8.9,2.6,13.9
									c-0.4,2.5-1.2,4.9-2.4,7.3c-1.2,2.3-2.9,4.6-5,6.4c-2.1,1.9-4.5,3.2-7.1,4c-2.6,0.7-5.4,1-8.1,0.5c-5.5-0.9-11-4.3-14.5-9.9
									c-0.9-1.4-1.7-2.8-2.2-4.3c-0.5-1.5-0.9-3-1.2-4.5c-0.5-2.9-0.3-5.9,0.4-8.6c0.4-1.3,0.8-2.6,1.5-3.8
									c0.6-1.2,1.4-2.3,2.3-3.3C270.3,301.9,272.5,300.3,275.1,299.1z"/>
							</g>
						</g>
						<g>
							<g>
								<path class="st1" d="M284.8,260.1c-0.8-5.8-1.2-11.7-1.3-17.6c0.1-5.9,0.5-11.8,1.3-17.6l-40.5-6.1
									c-1.2,7.9-1.7,15.8-1.8,23.7c0.1,7.9,0.6,15.9,1.8,23.7L284.8,260.1z"/>
								<path class="st2" d="M264.5,221.8c5.6,0.9,10.4,3.8,13.6,7.5c1.7,1.9,3.1,3.9,3.9,6.1c0.9,2.2,1.5,4.5,1.4,7
									c0.1,2.4-0.5,4.8-1.4,7c-0.9,2.2-2.2,4.3-3.9,6.1c-3.3,3.7-8,6.7-13.6,7.5c-5.6,0.9-10.9-0.8-15.1-4.5c-2.1-1.9-3.7-4.3-5-7
									c-1.2-2.8-1.8-5.9-1.9-9.2c0.1-3.3,0.7-6.4,1.9-9.2c1.3-2.8,2.9-5.1,5-7C253.6,222.6,259,221,264.5,221.8z"/>
							</g>
						</g>
						<g>
							<g>
								<path class="st1" d="M293.8,194.2c1.1-2.7,2.6-5.3,3.9-7.9c1.5-2.5,2.9-5.1,4.5-7.6c3.2-5,6.7-9.7,10.7-14.1l-30.7-27
									c-5.3,5.9-10,12.3-14.3,19c-2.2,3.3-4.1,6.8-6.1,10.2c-1.8,3.5-3.7,7-5.2,10.7L293.8,194.2z"/>
								<path class="st2" d="M297.5,151.1c2.1,1.9,3.8,4.1,5,6.4c1.2,2.4,1.9,4.8,2.4,7.3c0.8,5,0,9.8-2.6,13.9
									c-0.6,1-1.4,1.9-2.3,2.8c-0.8,0.9-1.7,1.6-2.7,2.3c-2,1.3-4.2,2.4-6.6,3.1c-1.2,0.3-2.5,0.6-3.8,0.7
									c-1.3,0.2-2.6,0.2-3.9,0.1c-2.6-0.1-5.3-0.7-7.9-1.9c-2.6-1.2-4.8-2.8-6.5-4.8c-0.9-1-1.7-2.1-2.3-3.3
									c-0.6-1.2-1.1-2.5-1.5-3.8c-0.7-2.7-0.9-5.7-0.4-8.6c0.3-1.5,0.6-3,1.2-4.5c0.5-1.5,1.3-2.9,2.2-4.3c3.5-5.6,9-9,14.5-9.9
									c2.7-0.5,5.5-0.3,8.1,0.5C293,147.9,295.4,149.2,297.5,151.1z"/>
							</g>
						</g>
						<g>
							<g>
								<path class="st1" d="M337,143.7c4.9-3.3,10.1-6.1,15.5-8.5c1.4-0.6,2.7-1.3,4-1.8l4.1-1.6c2.8-0.9,5.5-2,8.4-2.7l-11.2-39.4
									c-3.8,1-7.6,2.4-11.3,3.7l-5.5,2.2c-1.9,0.7-3.6,1.6-5.5,2.4c-7.2,3.3-14.2,7.1-20.8,11.5L337,143.7z"/>
								<path class="st2" d="M363.4,109.3c0.8,2.7,1,5.5,0.7,8.1c-0.1,1.3-0.4,2.6-0.7,3.8c-0.3,1.3-0.7,2.5-1.2,3.6
									c-1,2.3-2.4,4.3-4,6.1c-0.8,0.9-1.7,1.7-2.7,2.3c-1,0.7-2,1.4-3.1,1.8c-4.4,2-9.3,2.1-14.1,0.6c-2.4-0.8-4.7-1.8-6.9-3.4
									c-2.1-1.5-4.1-3.5-5.7-5.8c-1.5-2.4-2.5-4.9-2.9-7.6c-0.4-2.6-0.2-5.5,0.7-8.1c1.7-5.3,5.8-10.2,11.9-13
									c1.5-0.7,3-1.2,4.5-1.6c1.5-0.3,3.1-0.5,4.6-0.5c3-0.1,5.9,0.5,8.4,1.6c1.3,0.5,2.5,1.2,3.6,2c1.1,0.8,2.1,1.7,3,2.7
									C361.3,104.2,362.6,106.6,363.4,109.3z"/>
							</g>
						</g>
						<g>
							<g>
								<path class="st1" d="M400.7,124.5c1.5-0.1,3,0.1,4.4,0.1l2.2,0.1c0.7,0,1.5,0.1,2.2,0.2c1.5,0.1,2.9,0.2,4.4,0.3l4.4,0.6
									c1.5,0.1,2.9,0.5,4.4,0.7c1.5,0.3,2.9,0.5,4.3,0.9c1.4,0.3,2.9,0.6,4.3,1l4.2,1.2l11.8-39.2l-5.7-1.6
									c-1.9-0.5-3.9-0.9-5.8-1.4c-1.9-0.5-3.9-0.8-5.8-1.2c-2-0.3-3.9-0.8-5.9-1l-5.9-0.7c-2-0.2-4-0.3-5.9-0.5
									c-1-0.1-2-0.2-3-0.2l-3-0.1c-2,0-4-0.1-5.9-0.1L400.7,124.5z"/>
								<path class="st2" d="M441.5,109.9c-1.6,5.4-5.3,9.7-9.4,12.4c-2.1,1.4-4.3,2.4-6.6,3c-1.2,0.3-2.3,0.5-3.5,0.6
									c-1.2,0.1-2.4,0-3.6-0.2c-2.4-0.3-4.6-1.2-6.7-2.4c-2.1-1.2-3.9-2.9-5.5-4.7c-1.6-1.9-3-4.1-4-6.6c-1-2.5-1.6-5.1-1.6-8
									c0-2.8,0.5-5.6,1.7-8c1.1-2.4,2.8-4.6,4.9-6.4c2.1-1.8,4.7-3.1,7.6-3.9c2.9-0.9,6.1-1,9.3-0.6c1.6,0.2,3.2,0.6,4.7,1.2
									c1.5,0.5,2.9,1.2,4.2,2c2.6,1.6,4.7,3.7,6.2,5.9C442.3,98.9,443.1,104.5,441.5,109.9z"/>
							</g>
						</g>
						<g>
							<g>
								<path class="st1" d="M464.6,142.8c1.2,0.8,2.5,1.5,3.7,2.4l3.6,2.6c2.3,1.8,4.7,3.6,6.9,5.6c2.3,1.9,4.4,4,6.5,6l3.1,3.2
									c1,1.1,1.9,2.2,2.9,3.3l31.1-26.6c-1.3-1.5-2.6-3-3.9-4.5l-4.1-4.3c-2.8-2.8-5.7-5.6-8.7-8.1c-3-2.6-6.1-5-9.3-7.5l-4.9-3.5
									c-1.6-1.2-3.3-2.2-5-3.3L464.6,142.8z"/>
								<path class="st2" d="M506.8,152.6c-2.1,1.8-4.6,3.1-7.1,4c-2.5,0.9-5,1.3-7.6,1.3c-1.3,0-2.5-0.1-3.7-0.2
									c-0.6-0.1-1.2-0.2-1.8-0.4c-0.6-0.1-1.2-0.3-1.7-0.5c-2.3-0.7-4.3-1.9-6.2-3.5c-0.9-0.8-1.7-1.7-2.5-2.6
									c-0.7-0.9-1.4-1.9-1.9-3c-0.3-0.5-0.5-1.1-0.7-1.7c-0.2-0.6-0.4-1.1-0.6-1.7c-0.4-1.2-0.6-2.4-0.8-3.6
									c-0.3-2.5-0.3-5.1,0.2-7.7c0.5-2.6,1.5-5.2,3-7.6c1.5-2.4,3.4-4.3,5.7-5.8c2.3-1.5,4.9-2.4,7.6-2.7c1.4-0.2,2.8-0.2,4.2-0.1
									c0.7,0.1,1.5,0.2,2.2,0.3c0.7,0.2,1.4,0.3,2.1,0.6c1.4,0.5,2.8,1.1,4.2,1.8c1.4,0.7,2.7,1.7,3.9,2.8
									c2.5,2.1,4.4,4.7,5.7,7.4c0.3,0.7,0.6,1.4,0.9,2c0.2,0.7,0.4,1.4,0.6,2.1c0.3,1.4,0.5,2.8,0.6,4.2c0.1,2.7-0.5,5.5-1.6,7.9
									C510.6,148.5,508.9,150.7,506.8,152.6z"/>
							</g>
						</g>
						<g>
							<g>
								<path class="st1" d="M508.5,192.7c2.6,5.3,4.5,10.9,6.2,16.5c1.7,5.6,2.9,11.4,3.7,17.3L559,221c-1.1-7.9-2.7-15.7-5-23.3
									c-2.3-7.6-5-15.1-8.4-22.3L508.5,192.7z"/>
								<path class="st2" d="M538.7,223.8c-5.6,0.7-10.9-0.8-15.2-3.4c-1.1-0.7-2-1.4-2.9-2.2c-0.9-0.8-1.8-1.7-2.5-2.6
									c-0.8-0.9-1.4-1.9-1.9-3c-0.6-1-1-2.1-1.4-3.3c-0.2-0.6-0.3-1.2-0.4-1.8c-0.1-0.6-0.2-1.2-0.3-1.8c-0.1-1.2-0.1-2.4,0.1-3.6
									c0.3-2.4,0.9-4.7,2-7c2.1-4.5,5.8-8.7,10.9-11.1c2.6-1.2,5.2-1.8,7.9-1.8c2.7,0,5.4,0.6,7.9,1.8c2.5,1.2,4.8,3,6.8,5.3
									c0.9,1.2,1.8,2.4,2.6,3.8c0.4,0.7,0.7,1.4,1,2.1c0.3,0.7,0.5,1.5,0.8,2.3c0.5,1.6,0.8,3.2,0.9,4.7c0.1,1.6,0,3.1-0.1,4.6
									c-0.2,1.5-0.5,2.9-1,4.3c-0.5,1.4-1.1,2.7-1.8,3.8C549.1,219.9,544.3,223,538.7,223.8z"/>
							</g>
						</g>
					</g>
				</g>
			</g>
		</g>
		<path class="st3" d="M330,160.9c-20.5-15.1-59.7-19.6-93.1-17.2c-42.4,3.1-76.1,27.5-76.1,27.5S132.9,191.7,122,221
			c-7.5,20.2-6.7,36.8-6.7,36.8c-6.5,3.8-44.4,18.3-56,42.9c-9.4,20-9.1,22.1-4.6,54.9c4.4,32.3,42.6,42.5,76.4,40.5
			c19.9-1.2,272.8,0.2,272.8,0.2s35.7-10.3,50.8-43c13.3-28.9,12.1-43,12.1-43s2.8-22.3-26.9-51.6c-16.6-16.4-58.3-18-58.3-18
			S374.2,187.1,330,160.9"/>
	</g>
</g>
<g id="Layer_2">
</g>
</svg>
