<?xml version="1.0" encoding="utf-8"?>
<!-- Generator: Adobe Illustrator 21.0.0, SVG Export Plug-In . SVG Version: 6.00 Build 0)  -->
<svg version="1.1" id="Layer_1" xmlns="http://www.w3.org/2000/svg" xmlns:xlink="http://www.w3.org/1999/xlink" x="0px" y="0px"
	 viewBox="0 0 500 500" style="enable-background:new 0 0 500 500;" xml:space="preserve">
<style type="text/css">
	.st0{fill:#FFFF00;stroke:#FFFF00;stroke-width:18;stroke-miterlimit:10;}
	.st1{fill:none;}
	.st2{fill-rule:evenodd;clip-rule:evenodd;fill:#FFFF00;}
</style>
<g>
	<circle class="st0" cx="250.5" cy="249.5" r="89.9"/>
	<g>
		<g>
			<g>
				<g>
					<g>
						<path class="st1" d="M367.4,265.5c-0.8,5.8-2,11.6-3.7,17.3c-1.7,5.6-3.7,11.2-6.2,16.5l37.1,17.3c3.4-7.2,6.1-14.7,8.4-22.3
							c2.3-7.6,3.9-15.4,5-23.3L367.4,265.5z"/>
						<path class="st2" d="M376.1,307.9c-5.1-2.4-8.8-6.6-10.9-11.1c-1.1-2.3-1.7-4.6-2-7c-0.1-1.2-0.2-2.4-0.1-3.6
							c0.1-0.6,0.2-1.2,0.3-1.8c0.1-0.6,0.2-1.2,0.4-1.8c0.3-1.2,0.8-2.3,1.4-3.3c0.6-1,1.2-2,1.9-3c0.7-0.9,1.6-1.8,2.5-2.6
							c0.9-0.8,1.9-1.5,2.9-2.2c4.3-2.6,9.6-4.2,15.2-3.4c5.6,0.7,10.4,3.8,13.3,8.6c0.7,1.2,1.3,2.5,1.8,3.8c0.5,1.4,0.8,2.8,1,4.3
							c0.2,1.5,0.3,3,0.1,4.6c-0.2,1.6-0.5,3.1-0.9,4.7c-0.2,0.8-0.5,1.6-0.8,2.3c-0.3,0.7-0.7,1.5-1,2.1c-0.8,1.4-1.6,2.7-2.6,3.8
							c-1.9,2.3-4.3,4.1-6.8,5.3c-2.5,1.2-5.2,1.8-7.9,1.8C381.3,309.7,378.6,309.1,376.1,307.9z"/>
					</g>
				</g>
				<g>
					<g>
						<path class="st1" d="M340.2,326.1c-1,1.1-1.9,2.3-2.9,3.3l-3.1,3.2c-2.1,2-4.2,4.1-6.5,6c-2.2,2-4.6,3.7-6.9,5.6l-3.6,2.6
							c-1.2,0.9-2.5,1.6-3.7,2.4l21.9,34.6c1.7-1.1,3.4-2.1,5-3.3l4.9-3.5c3.1-2.4,6.3-4.8,9.3-7.5c3-2.5,5.9-5.3,8.7-8.1l4.1-4.3
							c1.4-1.4,2.6-3,3.9-4.5L340.2,326.1z"/>
						<path class="st2" d="M324.5,366.5c-1.5-2.4-2.5-5-3-7.6c-0.5-2.6-0.5-5.2-0.2-7.7c0.2-1.2,0.4-2.5,0.8-3.6
							c0.4-1.1,0.8-2.3,1.3-3.4c0.5-1.1,1.2-2.1,1.9-3c0.7-0.9,1.5-1.9,2.5-2.6c3.7-3.2,8.4-4.6,13.4-4.6c2.5,0.1,5.1,0.5,7.6,1.3
							c2.5,0.9,4.9,2.2,7.1,4c2.1,1.8,3.8,4,4.9,6.5c1.1,2.4,1.7,5.2,1.6,7.9c-0.1,5.5-2.7,11.5-7.7,15.8c-1.3,1.1-2.5,2-3.9,2.8
							c-1.4,0.7-2.8,1.4-4.2,1.8c-1.4,0.5-2.9,0.8-4.3,0.9c-1.4,0.1-2.9,0.1-4.2-0.1c-2.7-0.3-5.4-1.3-7.6-2.7
							C328,370.9,326.1,368.9,324.5,366.5z"/>
					</g>
				</g>
				<g>
					<g>
						<path class="st1" d="M284.6,362.5l-4.2,1.2c-1.4,0.4-2.9,0.7-4.3,1c-1.4,0.4-2.9,0.6-4.3,0.9c-1.5,0.2-2.9,0.6-4.4,0.7
							l-4.4,0.6c-1.5,0.1-2.9,0.2-4.4,0.3c-0.7,0-1.5,0.1-2.2,0.2l-2.2,0.1c-1.5,0-3,0.1-4.4,0.1l-0.3,40.9c2,0.1,4-0.1,5.9-0.1
							l3-0.1c1,0,2-0.1,3-0.2c2-0.2,4-0.3,5.9-0.5l5.9-0.7c2-0.2,3.9-0.6,5.9-1c2-0.3,3.9-0.7,5.8-1.2c1.9-0.5,3.9-0.9,5.8-1.4
							l5.7-1.6L284.6,362.5z"/>
						<path class="st2" d="M249.5,388c0-2.8,0.6-5.5,1.6-8c1-2.5,2.3-4.7,4-6.6c1.6-1.8,3.5-3.5,5.5-4.7c2.1-1.1,4.3-2.1,6.7-2.4
							c1.2-0.1,2.4-0.2,3.6-0.2c1.2,0.1,2.4,0.3,3.5,0.6c2.3,0.5,4.5,1.6,6.6,3c4.1,2.7,7.8,7,9.4,12.4c1.6,5.4,0.8,11-2.3,15.7
							c-1.6,2.3-3.7,4.3-6.2,5.9c-1.3,0.8-2.7,1.4-4.2,2c-1.5,0.5-3,1-4.7,1.2c-3.3,0.4-6.4,0.3-9.3-0.6c-2.9-0.8-5.5-2.1-7.6-3.9
							c-2.1-1.8-3.8-4-4.9-6.4C250.1,393.5,249.5,390.8,249.5,388z"/>
					</g>
				</g>
				<g>
					<g>
						<path class="st1" d="M218,363c-2.9-0.7-5.6-1.8-8.4-2.7l-4.1-1.6c-1.4-0.5-2.7-1.2-4-1.8c-5.3-2.5-10.6-5.2-15.5-8.5
							l-22.4,34.3c6.6,4.4,13.6,8.2,20.8,11.5c1.8,0.8,3.6,1.7,5.5,2.4l5.5,2.2c3.8,1.3,7.5,2.7,11.3,3.7L218,363z"/>
						<path class="st2" d="M174.8,365.5c1.5-2.4,3.5-4.3,5.7-5.8c2.2-1.5,4.5-2.6,6.9-3.4c4.8-1.5,9.7-1.4,14.1,0.6
							c1.1,0.5,2.1,1.1,3.1,1.8c1,0.7,1.9,1.5,2.7,2.3c1.6,1.8,3,3.8,4,6.1c0.5,1.1,0.9,2.4,1.2,3.6c0.3,1.3,0.6,2.5,0.7,3.8
							c0.3,2.6,0.1,5.4-0.7,8.1c-0.8,2.7-2.1,5.1-3.8,7.2c-0.9,1-1.9,2-3,2.7c-1.1,0.8-2.3,1.4-3.6,2c-2.6,1.1-5.5,1.7-8.4,1.6
							c-1.5,0-3-0.2-4.6-0.5c-1.5-0.4-3-0.9-4.5-1.6c-6-2.7-10.2-7.7-11.9-13c-0.9-2.6-1.1-5.4-0.7-8.1
							C172.3,370.4,173.3,367.8,174.8,365.5z"/>
					</g>
				</g>
				<g>
					<g>
						<path class="st1" d="M161.9,327.4c-3.9-4.4-7.5-9.2-10.7-14.1c-1.7-2.4-3.1-5-4.5-7.6c-1.3-2.6-2.7-5.2-3.9-7.9l-37.3,16.8
							c1.6,3.7,3.4,7.2,5.2,10.7c2,3.4,3.9,6.9,6.1,10.2c4.3,6.7,9.1,13.1,14.3,19L161.9,327.4z"/>
						<path class="st2" d="M124.1,306.1c2.6-1.2,5.3-1.7,7.9-1.9c1.3-0.1,2.6,0,3.9,0.1c1.3,0.1,2.6,0.4,3.8,0.7
							c2.4,0.7,4.6,1.7,6.6,3.1c1,0.7,1.9,1.4,2.7,2.3c0.8,0.9,1.6,1.8,2.3,2.8c2.6,4.1,3.4,8.9,2.6,13.9c-0.4,2.5-1.2,4.9-2.4,7.3
							c-1.2,2.3-2.9,4.6-5,6.4c-2.1,1.9-4.5,3.2-7.1,4c-2.6,0.7-5.4,1-8.1,0.5c-5.5-0.9-11-4.3-14.5-9.9c-0.9-1.4-1.7-2.8-2.2-4.3
							c-0.5-1.5-0.9-3-1.2-4.5c-0.5-2.9-0.3-5.9,0.4-8.6c0.4-1.3,0.8-2.6,1.5-3.8c0.6-1.2,1.4-2.3,2.3-3.3
							C119.3,308.9,121.5,307.3,124.1,306.1z"/>
					</g>
				</g>
				<g>
					<g>
						<path class="st1" d="M133.8,267.1c-0.8-5.8-1.2-11.7-1.3-17.6c0.1-5.9,0.5-11.8,1.3-17.6l-40.5-6.1
							c-1.2,7.9-1.7,15.8-1.8,23.7c0.1,7.9,0.6,15.9,1.8,23.7L133.8,267.1z"/>
						<path class="st2" d="M113.5,228.8c5.6,0.9,10.4,3.8,13.6,7.5c1.7,1.9,3.1,3.9,3.9,6.1c0.9,2.2,1.5,4.5,1.4,7
							c0.1,2.4-0.5,4.8-1.4,7c-0.9,2.2-2.2,4.3-3.9,6.1c-3.3,3.7-8,6.7-13.6,7.5c-5.6,0.9-10.9-0.8-15.1-4.5c-2.1-1.9-3.7-4.3-5-7
							c-1.2-2.8-1.8-5.9-1.9-9.2c0.1-3.3,0.7-6.4,1.9-9.2c1.3-2.8,2.9-5.1,5-7C102.6,229.6,108,228,113.5,228.8z"/>
					</g>
				</g>
				<g>
					<g>
						<path class="st1" d="M142.8,201.2c1.1-2.7,2.6-5.3,3.9-7.9c1.5-2.5,2.9-5.1,4.5-7.6c3.2-5,6.7-9.7,10.7-14.1l-30.7-27
							c-5.3,5.9-10,12.3-14.3,19c-2.2,3.3-4.1,6.8-6.1,10.2c-1.8,3.5-3.7,7-5.2,10.7L142.8,201.2z"/>
						<path class="st2" d="M146.5,158.1c2.1,1.9,3.8,4.1,5,6.4c1.2,2.4,1.9,4.8,2.4,7.3c0.8,5,0,9.8-2.6,13.9
							c-0.6,1-1.4,1.9-2.3,2.8c-0.8,0.9-1.7,1.6-2.7,2.3c-2,1.3-4.2,2.4-6.6,3.1c-1.2,0.3-2.5,0.6-3.8,0.7c-1.3,0.2-2.6,0.2-3.9,0.1
							c-2.6-0.1-5.3-0.7-7.9-1.9c-2.6-1.2-4.8-2.8-6.5-4.8c-0.9-1-1.7-2.1-2.3-3.3c-0.6-1.2-1.1-2.5-1.5-3.8
							c-0.7-2.7-0.9-5.7-0.4-8.6c0.3-1.5,0.6-3,1.2-4.5c0.5-1.5,1.3-2.9,2.2-4.3c3.5-5.6,9-9,14.5-9.9c2.7-0.5,5.5-0.3,8.1,0.5
							C142,154.9,144.4,156.2,146.5,158.1z"/>
					</g>
				</g>
				<g>
					<g>
						<path class="st1" d="M186,150.7c4.9-3.3,10.1-6.1,15.5-8.5c1.4-0.6,2.7-1.3,4-1.8l4.1-1.6c2.8-0.9,5.5-2,8.4-2.7l-11.2-39.4
							c-3.8,1-7.6,2.4-11.3,3.7l-5.5,2.2c-1.9,0.7-3.6,1.6-5.5,2.4c-7.2,3.3-14.2,7.1-20.8,11.5L186,150.7z"/>
						<path class="st2" d="M212.4,116.3c0.8,2.7,1,5.5,0.7,8.1c-0.1,1.3-0.4,2.6-0.7,3.8c-0.3,1.3-0.7,2.5-1.2,3.6
							c-1,2.3-2.4,4.3-4,6.1c-0.8,0.9-1.7,1.7-2.7,2.3c-1,0.7-2,1.4-3.1,1.8c-4.4,2-9.3,2.1-14.1,0.6c-2.4-0.8-4.7-1.8-6.9-3.4
							c-2.1-1.5-4.1-3.5-5.7-5.8c-1.5-2.4-2.5-4.9-2.9-7.6c-0.4-2.6-0.2-5.5,0.7-8.1c1.7-5.3,5.8-10.2,11.9-13
							c1.5-0.7,3-1.2,4.5-1.6c1.5-0.3,3.1-0.5,4.6-0.5c3-0.1,5.9,0.5,8.4,1.6c1.3,0.5,2.5,1.2,3.6,2c1.1,0.8,2.1,1.7,3,2.7
							C210.3,111.2,211.6,113.6,212.4,116.3z"/>
					</g>
				</g>
				<g>
					<g>
						<path class="st1" d="M249.7,131.5c1.5-0.1,3,0.1,4.4,0.1l2.2,0.1c0.7,0,1.5,0.1,2.2,0.2c1.5,0.1,2.9,0.2,4.4,0.3l4.4,0.6
							c1.5,0.1,2.9,0.5,4.4,0.7c1.5,0.3,2.9,0.5,4.3,0.9c1.4,0.3,2.9,0.6,4.3,1l4.2,1.2l11.8-39.2l-5.7-1.6
							c-1.9-0.5-3.9-0.9-5.8-1.4c-1.9-0.5-3.9-0.8-5.8-1.2c-2-0.3-3.9-0.8-5.9-1l-5.9-0.7c-2-0.2-4-0.3-5.9-0.5c-1-0.1-2-0.2-3-0.2
							l-3-0.1c-2,0-4-0.1-5.9-0.1L249.7,131.5z"/>
						<path class="st2" d="M290.5,116.9c-1.6,5.4-5.3,9.7-9.4,12.4c-2.1,1.4-4.3,2.4-6.6,3c-1.2,0.3-2.3,0.5-3.5,0.6
							c-1.2,0.1-2.4,0-3.6-0.2c-2.4-0.3-4.6-1.2-6.7-2.4c-2.1-1.2-3.9-2.9-5.5-4.7c-1.6-1.9-3-4.1-4-6.6c-1-2.5-1.6-5.1-1.6-8
							c0-2.8,0.5-5.6,1.7-8c1.1-2.4,2.8-4.6,4.9-6.4c2.1-1.8,4.7-3.1,7.6-3.9c2.9-0.9,6.1-1,9.3-0.6c1.6,0.2,3.2,0.6,4.7,1.2
							c1.5,0.5,2.9,1.2,4.2,2c2.6,1.6,4.7,3.7,6.2,5.9C291.3,105.9,292.1,111.5,290.5,116.9z"/>
					</g>
				</g>
				<g>
					<g>
						<path class="st1" d="M313.6,149.8c1.2,0.8,2.5,1.5,3.7,2.4l3.6,2.6c2.3,1.8,4.7,3.6,6.9,5.6c2.3,1.9,4.4,4,6.5,6l3.1,3.2
							c1,1.1,1.9,2.2,2.9,3.3l31.1-26.6c-1.3-1.5-2.6-3-3.9-4.5l-4.1-4.3c-2.8-2.8-5.7-5.6-8.7-8.1c-3-2.6-6.1-5-9.3-7.5l-4.9-3.5
							c-1.6-1.2-3.3-2.2-5-3.3L313.6,149.8z"/>
						<path class="st2" d="M355.8,159.6c-2.1,1.8-4.6,3.1-7.1,4c-2.5,0.9-5,1.3-7.6,1.3c-1.3,0-2.5-0.1-3.7-0.2
							c-0.6-0.1-1.2-0.2-1.8-0.4c-0.6-0.1-1.2-0.3-1.7-0.5c-2.3-0.7-4.3-1.9-6.2-3.5c-0.9-0.8-1.7-1.7-2.5-2.6
							c-0.7-0.9-1.4-1.9-1.9-3c-0.3-0.5-0.5-1.1-0.7-1.7c-0.2-0.6-0.4-1.1-0.6-1.7c-0.4-1.2-0.6-2.4-0.8-3.6
							c-0.3-2.5-0.3-5.1,0.2-7.7c0.5-2.6,1.5-5.2,3-7.6c1.5-2.4,3.4-4.3,5.7-5.8c2.3-1.5,4.9-2.4,7.6-2.7c1.4-0.2,2.8-0.2,4.2-0.1
							c0.7,0.1,1.5,0.2,2.2,0.3c0.7,0.2,1.4,0.3,2.1,0.6c1.4,0.5,2.8,1.1,4.2,1.8c1.4,0.7,2.7,1.7,3.9,2.8c2.5,2.1,4.4,4.7,5.7,7.4
							c0.3,0.7,0.6,1.4,0.9,2c0.2,0.7,0.4,1.4,0.6,2.1c0.3,1.4,0.5,2.8,0.6,4.2c0.1,2.7-0.5,5.5-1.6,7.9
							C359.6,155.5,357.9,157.7,355.8,159.6z"/>
					</g>
				</g>
				<g>
					<g>
						<path class="st1" d="M357.5,199.7c2.6,5.3,4.5,10.9,6.2,16.5c1.7,5.6,2.9,11.4,3.7,17.3L408,228c-1.1-7.9-2.7-15.7-5-23.3
							c-2.3-7.6-5-15.1-8.4-22.3L357.5,199.7z"/>
						<path class="st2" d="M387.7,230.8c-5.6,0.7-10.9-0.8-15.2-3.4c-1.1-0.7-2-1.4-2.9-2.2c-0.9-0.8-1.8-1.7-2.5-2.6
							c-0.8-0.9-1.4-1.9-1.9-3c-0.6-1-1-2.1-1.4-3.3c-0.2-0.6-0.3-1.2-0.4-1.8c-0.1-0.6-0.2-1.2-0.3-1.8c-0.1-1.2-0.1-2.4,0.1-3.6
							c0.3-2.4,0.9-4.7,2-7c2.1-4.5,5.8-8.7,10.9-11.1c2.6-1.2,5.2-1.8,7.9-1.8c2.7,0,5.4,0.6,7.9,1.8c2.5,1.2,4.8,3,6.8,5.3
							c0.9,1.2,1.8,2.4,2.6,3.8c0.4,0.7,0.7,1.4,1,2.1c0.3,0.7,0.5,1.5,0.8,2.3c0.5,1.6,0.8,3.2,0.9,4.7c0.1,1.6,0,3.1-0.1,4.6
							c-0.2,1.5-0.5,2.9-1,4.3c-0.5,1.4-1.1,2.7-1.8,3.8C398.1,226.9,393.3,230,387.7,230.8z"/>
					</g>
				</g>
			</g>
		</g>
	</g>
</g>
</svg>
