<svg xmlns="http://www.w3.org/2000/svg" xmlns:xlink="http://www.w3.org/1999/xlink" viewBox="0 0 715.05 448.47"><defs><style>.cls-1{fill:url(#linear-gradient);}.cls-2,.cls-3{fill:none;stroke-miterlimit:10;}.cls-2{stroke-width:30px;stroke:url(#linear-gradient-2);}.cls-3{stroke:#000;stroke-width:6px;}</style><linearGradient id="linear-gradient" x1="354.32" y1="265.71" x2="692.15" y2="206.14" gradientUnits="userSpaceOnUse"><stop offset="0" stop-color="#fff"/><stop offset="0.08" stop-color="#d0d0d0"/><stop offset="0.17" stop-color="#a0a0a0"/><stop offset="0.26" stop-color="#757575"/><stop offset="0.36" stop-color="#515151"/><stop offset="0.46" stop-color="#333"/><stop offset="0.57" stop-color="#1d1d1d"/><stop offset="0.69" stop-color="#0d0d0d"/><stop offset="0.82" stop-color="#030303"/><stop offset="1"/></linearGradient><linearGradient id="linear-gradient-2" x1="36.86" y1="238.01" x2="695.42" y2="238.01" gradientUnits="userSpaceOnUse"><stop offset="0" stop-color="#fff"/><stop offset="0.06" stop-color="#e7e7e7"/><stop offset="0.27" stop-color="#a2a2a2"/><stop offset="0.46" stop-color="#686868"/><stop offset="0.63" stop-color="#3b3b3b"/><stop offset="0.78" stop-color="#1b1b1b"/><stop offset="0.91" stop-color="#070707"/><stop offset="1"/></linearGradient></defs><title>Asset 22</title><g id="Layer_2" data-name="Layer 2"><g id="Layer_1-2" data-name="Layer 1"><polygon class="cls-1" points="458.64 446.57 322.37 84.54 369.15 65.22 418.98 55.05 477.96 55.05 541.01 65.22 620.34 93.69 679.32 133.35 458.64 446.57"/><path class="cls-2" d="M686.53,123.54a396.86,396.86,0,0,0-236-77.34c-220.16,0-398.64,178.48-398.64,398.64"/><line class="cls-3" x1="102.04" y1="283.77" x2="42.37" y2="262.59"/><line class="cls-3" x1="67.46" y1="445.47" y2="445.47"/><line class="cls-3" x1="184.61" y1="172.03" x2="140.81" y2="128.24"/><line class="cls-3" x1="501.93" y1="0.34" x2="494.67" y2="63.99"/><line class="cls-3" x1="322.58" y1="84.48" x2="299.79" y2="24.6"/><line class="cls-3" x1="673.83" y1="135.73" x2="712.59" y2="80.47"/></g></g></svg>