<svg xmlns="http://www.w3.org/2000/svg" viewBox="0 0 230.38 233.82"><defs><style>.cls-1,.cls-3{fill:none;stroke:#000;stroke-miterlimit:10;}.cls-1{stroke-width:18px;}.cls-2{font-size:74.54px;font-family:Karla-Regular, Karla;}.cls-3{stroke-width:4px;}</style></defs><title>Asset 5</title><g id="Layer_2" data-name="Layer 2"><g id="Layer_1-2" data-name="Layer 1"><polygon points="59.58 67.69 59.89 0 14.01 32.72 59.58 67.69"/><line class="cls-1" x1="43.59" y1="32.88" x2="131.17" y2="32.72"/><text class="cls-2" transform="translate(0.06 215.49)">10kmh</text><path class="cls-3" d="M154.68,74.47c-2.5.46-5-2.54-5.57-5.12a7.91,7.91,0,0,1,7.74-9.1c5.41,0,9.54,3.27,10,6.83.57,4.32.34,7.28-1.59,11.15s-5.57,6.6-12.63,6.48l-40,.1"/><path class="cls-3" d="M154.68,109.67c-2.5-.48-5,2.67-5.57,5.38-.84,3.78,2.16,9.57,7.74,9.57,5.41,0,9.54-3.44,10-7.18.57-4.55.34-7.66-1.59-11.73s-5.57-6.94-12.63-6.82l-40-.1"/><path class="cls-3" d="M182.47,75.67c-3.9.71-7.75-4-8.69-8-1.31-5.6,3.37-14.19,12.06-14.19,8.43,0,14.88,5.09,15.61,10.64.89,6.74.53,11.35-2.48,17.38s-8.69,10.29-19.69,10.11l-66.69.16"/></g></g></svg>