<?xml version="1.0" encoding="utf-8"?>
<!-- Generator: Adobe Illustrator 21.0.0, SVG Export Plug-In . SVG Version: 6.00 Build 0)  -->
<svg version="1.1" xmlns="http://www.w3.org/2000/svg" xmlns:xlink="http://www.w3.org/1999/xlink" x="0px" y="0px"
	 viewBox="0 0 579 500" style="enable-background:new 0 0 579 500;" xml:space="preserve">
<style type="text/css">
	.st0{fill:none;stroke:#000000;stroke-width:18;stroke-miterlimit:10;}
</style>
<g id="Layer_1">
	<g>
		<path class="st0" d="M276.4,187.9c-12.8,2.3-25.3-13-28.4-26.1c-4.3-18.3,11-46.4,39.4-46.4c27.6,0,48.6,16.7,51,34.8
			c2.9,22,1.7,37.1-8.1,56.8c-9.7,19.5-28.4,33.6-64.4,33.1l-204.1,0.5"/>
		<path class="st0" d="M276.4,367.3c-12.8-2.4-25.3,13.6-28.4,27.4c-4.3,19.3,11,48.8,39.4,48.8c27.6,0,48.6-17.5,51-36.6
			c2.9-23.2,1.7-39-8.1-59.8c-9.7-20.5-28.4-35.4-64.4-34.8l-204.1-0.5"/>
		<path class="st0" d="M418.1,194c-19.9,3.6-39.5-20.2-44.3-40.7C367.1,124.8,391,81,435.3,81c43,0,75.8,26,79.6,54.2
			c4.5,34.4,2.7,57.9-12.7,88.6c-15.2,30.3-44.3,52.4-100.4,51.5l-339.9,0.8"/>
	</g>
</g>
<g id="Layer_2">
</g>
</svg>
