<svg xmlns="http://www.w3.org/2000/svg" viewBox="0 0 301.31 272.48"><defs><style>.cls-1{fill:#526827;}.cls-1,.cls-2,.cls-3,.cls-4{stroke:#000;stroke-miterlimit:10;stroke-width:4px;}.cls-2{fill:#006837;}.cls-3{fill:none;}.cls-4{fill:#b70000;}</style></defs><title>Asset 34</title><g id="Layer_2" data-name="Layer 2"><g id="Layer_1-2" data-name="Layer 1"><path class="cls-1" d="M12.25,45.18s26,23,22.37,42.18C32.2,100.24,7.09,107,7.09,107s71-4.92,47.27,22c-16,18.18-23.93,25-23.93,25s35.35-7.66,36.33,11.19L63.4,186s21.88-15.73,37.2-8.78c13.62,6.18,34.14,29.52,34.14,29.52S97.62,165.6,118.79,156s33.88-12.16,33.88-12.16-24.27-11.64-14.4-26.75a88,88,0,0,1,27.45-26.44s-42.16,19.7-31.08-10.94c9.2-25.43,17.58-38.76,17.58-38.76s-45,35.34-46.39,12.31C104.67,33.83,115.27,17,115.27,17S96.82,35.95,75.82,28C58.5,21.42,45.23,1.09,45.23,1.09S57,23.36,43.85,42.94C34.94,56.22,12.25,45.18,12.25,45.18Z"/><line class="cls-2" x1="66.69" y1="55.52" x2="117.4" y2="189.24"/><path class="cls-1" d="M270.37,112.73s-16.6,21-29.78,18.7c-8.87-1.58-12.92-21.22-12.92-21.22s1.64,55.86-16.45,37.84C199,135.89,194.5,129.8,194.5,129.8s4.42,27.7-8.66,28.94l-14.28-2.14s10.35,16.87,5.15,29.12c-4.62,10.9-21.31,27.67-21.31,27.67s29.4-30.3,35.55-13.85S198.52,226,198.52,226s8.67-19.44,18.9-12a60.77,60.77,0,0,1,17.63,21s-12.59-32.76,8.36-24.79c17.39,6.62,26.42,12.9,26.42,12.9s-23.36-34.62-7.37-36.28c13.47-1.4,24.86,6.54,24.86,6.54s-12.66-14.08-6.62-30.84c5-13.83,19.4-24.8,19.4-24.8s-15.72,9.82-29,0C262.15,130.9,270.37,112.73,270.37,112.73Z"/><line class="cls-3" x1="261.85" y1="155.93" x2="167.92" y2="199.27"/><circle class="cls-4" cx="111.4" cy="225.75" r="20.56" transform="translate(-134.39 280.17) rotate(-76.22)"/><circle class="cls-4" cx="160.49" cy="249.92" r="20.56" transform="translate(-4.93 3.24) rotate(-1.14)"/></g></g></svg>