<svg xmlns="http://www.w3.org/2000/svg" viewBox="0 0 286.42 306.96"><defs><style>.cls-1{fill:none;}.cls-1,.cls-2,.cls-3,.cls-4{stroke:#000;stroke-miterlimit:10;}.cls-1,.cls-2,.cls-3{stroke-width:4px;}.cls-2{fill:#fff;}.cls-4{fill:#ff9700;stroke-width:2px;}</style></defs><title>Asset 21</title><g id="Layer_2" data-name="Layer 2"><g id="Layer_1-2" data-name="Layer 1"><circle class="cls-1" cx="133.27" cy="223.81" r="64.07"/><circle class="cls-2" cx="133.27" cy="131" r="44.82"/><circle class="cls-3" cx="133.27" cy="191.02" r="5.14"/><circle class="cls-3" cx="157.18" cy="131" r="5.14"/><circle class="cls-3" cx="112.63" cy="131" r="5.14"/><circle class="cls-3" cx="133.27" cy="213.54" r="5.14"/><circle class="cls-3" cx="133.27" cy="236.06" r="5.14"/><polygon class="cls-2" points="88.46 86.18 88.46 104.58 178.09 104.58 178.09 86.18 107.49 86.18 88.46 86.18"/><rect class="cls-2" x="107.49" y="53.67" width="54.83" height="32.51"/><polygon class="cls-4" points="132.7 137.04 115.52 158.84 140.75 147.27 132.7 137.04"/><polyline class="cls-2" points="11.93 305.21 88.46 262.92 170.51 275.95 247.57 262.92 285.03 299.17"/><line class="cls-1" x1="25.58" x2="25.58" y2="35"/><line class="cls-1" x1="10.04" y1="27.1" x2="40.27" y2="7.9"/><line class="cls-1" x1="11.11" y1="7.29" x2="40.05" y2="27.72"/><line class="cls-1" x1="233.71" y1="25.77" x2="233.71" y2="60.77"/><line class="cls-1" x1="218.16" y1="52.87" x2="248.4" y2="33.67"/><line class="cls-1" x1="219.23" y1="33.06" x2="248.18" y2="53.49"/><line class="cls-1" x1="265.73" y1="120.04" x2="265.73" y2="155.04"/><line class="cls-1" x1="250.19" y1="147.14" x2="280.43" y2="127.95"/><line class="cls-1" x1="251.26" y1="127.33" x2="280.21" y2="147.76"/><line class="cls-1" x1="209.17" y1="137.54" x2="209.17" y2="172.55"/><line class="cls-1" x1="193.63" y1="164.64" x2="223.86" y2="145.45"/><line class="cls-1" x1="194.7" y1="144.83" x2="223.65" y2="165.26"/><line class="cls-1" x1="16.61" y1="195.91" x2="16.61" y2="230.92"/><line class="cls-1" x1="1.07" y1="223.01" x2="31.31" y2="203.82"/><line class="cls-1" x1="2.14" y1="203.2" x2="31.09" y2="223.63"/></g></g></svg>